<svg xmlns="http://www.w3.org/2000/svg" data-name="Layer 1" viewBox="0 0 24 24"><path d="M18 24h-7.563l.291-1.23A8.944 8.944 0 0 0 11 21a2 2 0 0 0-4 0 8.944 8.944 0 0 0 .272 1.77L7.563 24H0V9a3 3 0 0 1 3-3h2.272A9.929 9.929 0 0 1 5 4a4 4 0 0 1 8 0 9.929 9.929 0 0 1-.272 2H15a3 3 0 0 1 3 3v1.772a10.02 10.02 0 0 1 2-.272 4 4 0 0 1 0 8 10.02 10.02 0 0 1-2-.272Zm-5.086-2H16v-6.418l1.291.392A11.224 11.224 0 0 0 20 16.5a2 2 0 0 0 0-4 11.224 11.224 0 0 0-2.709.526L16 13.418V9a1 1 0 0 0-1-1h-4.918l.392-1.291A11.2 11.2 0 0 0 11 4a2 2 0 0 0-4 0 11.2 11.2 0 0 0 .526 2.709L7.918 8H3a1 1 0 0 0-1 1v13h3.086A7.149 7.149 0 0 1 5 21a4 4 0 0 1 8 0 7.149 7.149 0 0 1-.086 1Z"/></svg>