<svg xmlns="http://www.w3.org/2000/svg" data-name="Isolation Mode" viewBox="0 0 24 24"><path d="M12 7.637A4.363 4.363 0 1 0 16.363 12 4.368 4.368 0 0 0 12 7.637Zm0 5.726A1.363 1.363 0 1 1 13.363 12 1.364 1.364 0 0 1 12 13.363Z"/><path d="M22 12a9.921 9.921 0 0 0-.7-3.636L23.145 7.3l-1.5-2.6-1.839 1.066A9.994 9.994 0 0 0 13.5 2.125V0h-3v2.125a9.991 9.991 0 0 0-6.3 3.637L2.358 4.7l-1.5 2.6L2.7 8.359a9.865 9.865 0 0 0 0 7.277L.855 16.7l1.5 2.6 1.839-1.061a9.994 9.994 0 0 0 6.306 3.636V24h3v-2.125a9.991 9.991 0 0 0 6.3-3.637l1.84 1.063 1.5-2.6-1.84-1.06A9.948 9.948 0 0 0 22 12Zm-10 7a7 7 0 1 1 7-7 7.009 7.009 0 0 1-7 7Z"/></svg>